<?xml version="1.0" standalone="no"?>
<!DOCTYPE svg PUBLIC "-//W3C//DTD SVG 1.1//EN" "http://www.w3.org/Graphics/SVG/1.1/DTD/svg11.dtd">
<svg xmlns="http://www.w3.org/2000/svg" width="4253" height="2159" viewBox="0 0 4253 2159" fill="none">
<g clip-path="url(#clip0_3_810)">
<path d="M4224.18 932.42C4216.94 932.42 4210.35 937.099 4206.95 946.882C4163.35 1071.3 4104.43 1145.32 4055.94 1145.32C4028.08 1145.32 4016.81 1114.27 4016.81 1065.56C4016.81 943.692 4089.76 685.277 4126.55 567.449C4130.81 553.199 4133.57 540.438 4133.57 529.591C4133.57 495.348 4114.86 478.546 4068.49 478.546C4018.51 478.546 3964.7 498.113 3912.38 589.781C3894.3 508.96 3839.64 473.654 3763.28 473.654C3675.02 473.654 3589.73 530.441 3519.54 622.535C3449.36 714.628 3366.84 744.83 3304.73 729.942C3349.39 620.621 3365.98 538.949 3365.98 478.333C3365.98 383.262 3318.98 325.836 3243.05 325.836C3127.56 325.836 3060.99 436.008 3060.99 551.923C3060.99 641.464 3101.61 733.557 3190.94 778.222C3116.08 947.52 3006.76 1100.66 2965.28 1100.66C2911.68 1100.66 2895.95 838.412 2898.92 650.822C2900.84 543.203 2909.77 537.673 2909.77 505.132C2909.77 486.415 2897.65 473.654 2848.94 473.654C2735.37 473.654 2700.27 569.788 2694.96 680.173C2693.26 722.072 2686.66 763.759 2675.39 804.169C2627.96 973.468 2530.12 1101.93 2466.32 1101.93C2436.75 1101.93 2428.67 1072.37 2428.67 1033.66C2428.67 911.789 2496.95 759.505 2496.95 629.553C2496.95 534.057 2455.05 473.654 2376.14 473.654C2283.19 473.654 2160.26 584.251 2043.92 791.408C2082.21 632.744 2097.94 479.184 1984.58 479.184C1959.91 479.609 1935.88 485.777 1914.18 497.475C1899.29 504.493 1890.15 519.807 1891.21 536.184C1902.06 705.057 1755.09 1137.66 1615.78 1137.66C1590.47 1137.66 1578.14 1110.23 1578.14 1065.99C1578.14 943.905 1650.88 686.128 1687.46 568.087C1692.14 552.773 1694.69 539.587 1694.69 528.102C1694.69 495.773 1674.7 479.184 1629.4 479.184C1579.63 479.184 1525.6 498.113 1473.5 589.781C1455.2 508.96 1400.54 473.654 1324.19 473.654C1198.92 473.654 1058.97 606.158 997.502 778.86C915.192 1009.41 749.296 1232.1 525.975 1232.1C323.284 1232.1 216.303 1063.43 216.303 796.938C216.303 412.187 498.751 97.836 708.248 97.836C808.423 97.836 856.278 161.642 856.278 259.478C856.278 377.945 790.132 433.031 790.132 478.12C790.132 491.945 801.617 505.557 824.375 505.557C915.405 505.557 1022.6 398.575 1022.6 252.672C1022.6 106.769 904.132 0 694.636 0C348.381 0 0 348.381 0 794.811C0 1150 175.254 1364.17 478.333 1364.17C685.065 1364.17 865.636 1203.38 963.047 1015.79C974.106 1171.27 1044.72 1252.51 1152.34 1252.51C1248.05 1252.51 1325.47 1195.51 1384.59 1095.34C1407.35 1200.19 1467.75 1251.45 1546.23 1251.45C1636.2 1251.45 1711.49 1194.45 1783.17 1088.53C1782.1 1171.69 1801.03 1249.96 1873.13 1249.96C1907.16 1249.96 1947.79 1242.09 1955.02 1212.32C2030.95 898.39 2218.54 642.102 2275.96 642.102C2292.98 642.102 2297.66 658.479 2297.66 677.833C2297.66 763.121 2237.47 937.95 2237.47 1049.61C2237.47 1170.2 2288.72 1249.96 2394.64 1249.96C2512.05 1249.96 2631.36 1106.18 2710.91 896.05C2735.79 1092.36 2789.6 1250.81 2873.83 1250.81C2977.19 1250.81 3160.74 1033.23 3271.98 802.893C3315.58 808.423 3381.09 806.934 3444.04 762.483C3417.24 830.33 3401.5 904.558 3401.5 978.785C3401.5 1192.54 3503.59 1252.51 3591.43 1252.51C3686.93 1252.51 3764.35 1195.51 3823.69 1095.34C3843.25 1185.73 3893.24 1251.24 3985.12 1251.24C4128.89 1251.24 4253.74 1104.27 4253.74 983.677C4253.74 951.774 4240.13 932.42 4224.18 932.42ZM1239.97 1134.05C1181.9 1134.05 1159.14 1075.56 1159.14 988.356C1159.14 836.923 1262.72 584.038 1372.26 584.038C1420.11 584.038 1438.19 640.4 1438.19 709.311C1438.19 863.084 1339.72 1134.05 1239.97 1134.05ZM3228.8 682.087C3194.13 640.826 3181.58 584.676 3181.58 534.695C3181.58 473.016 3204.13 420.908 3231.14 420.908C3258.15 420.908 3266.45 447.493 3266.45 484.501C3266.45 546.393 3244.33 636.785 3228.8 682.087ZM3679.06 1134.05C3621 1134.05 3598.24 1066.84 3598.24 988.356C3598.24 842.24 3701.82 584.038 3812.2 584.038C3860.06 584.038 3877.07 639.975 3877.07 709.311C3877.07 863.084 3780.3 1134.05 3679.06 1134.05Z" fill="#7D2AE7"/>
<path d="M4224.18 932.42C4216.94 932.42 4210.35 937.099 4206.95 946.882C4163.35 1071.3 4104.43 1145.32 4055.94 1145.32C4028.08 1145.32 4016.81 1114.27 4016.81 1065.56C4016.81 943.692 4089.76 685.277 4126.55 567.449C4130.81 553.199 4133.57 540.438 4133.57 529.591C4133.57 495.348 4114.86 478.546 4068.49 478.546C4018.51 478.546 3964.7 498.113 3912.38 589.781C3894.3 508.96 3839.64 473.654 3763.28 473.654C3675.02 473.654 3589.73 530.441 3519.54 622.535C3449.36 714.628 3366.84 744.83 3304.73 729.942C3349.39 620.621 3365.98 538.949 3365.98 478.333C3365.98 383.262 3318.98 325.836 3243.05 325.836C3127.56 325.836 3060.99 436.008 3060.99 551.923C3060.99 641.464 3101.61 733.557 3190.94 778.222C3116.08 947.52 3006.76 1100.66 2965.28 1100.66C2911.68 1100.66 2895.95 838.412 2898.92 650.822C2900.84 543.203 2909.77 537.673 2909.77 505.132C2909.77 486.415 2897.65 473.654 2848.94 473.654C2735.37 473.654 2700.27 569.788 2694.96 680.173C2693.26 722.072 2686.66 763.759 2675.39 804.169C2627.96 973.468 2530.12 1101.93 2466.32 1101.93C2436.75 1101.93 2428.67 1072.37 2428.67 1033.66C2428.67 911.789 2496.95 759.505 2496.95 629.553C2496.95 534.057 2455.05 473.654 2376.14 473.654C2283.19 473.654 2160.26 584.251 2043.92 791.408C2082.21 632.744 2097.94 479.184 1984.58 479.184C1959.91 479.609 1935.88 485.777 1914.18 497.475C1899.29 504.493 1890.15 519.807 1891.21 536.184C1902.06 705.057 1755.09 1137.66 1615.78 1137.66C1590.47 1137.66 1578.14 1110.23 1578.14 1065.99C1578.14 943.905 1650.88 686.128 1687.46 568.087C1692.14 552.773 1694.69 539.587 1694.69 528.102C1694.69 495.773 1674.7 479.184 1629.4 479.184C1579.63 479.184 1525.6 498.113 1473.5 589.781C1455.2 508.96 1400.54 473.654 1324.19 473.654C1198.92 473.654 1058.97 606.158 997.502 778.86C915.192 1009.41 749.296 1232.1 525.975 1232.1C323.284 1232.1 216.303 1063.43 216.303 796.938C216.303 412.187 498.751 97.836 708.248 97.836C808.423 97.836 856.278 161.642 856.278 259.478C856.278 377.945 790.132 433.031 790.132 478.12C790.132 491.945 801.617 505.557 824.375 505.557C915.405 505.557 1022.6 398.575 1022.6 252.672C1022.6 106.769 904.132 0 694.636 0C348.381 0 0 348.381 0 794.811C0 1150 175.254 1364.17 478.333 1364.17C685.065 1364.17 865.636 1203.38 963.047 1015.79C974.106 1171.27 1044.72 1252.51 1152.34 1252.51C1248.05 1252.51 1325.47 1195.51 1384.59 1095.34C1407.35 1200.19 1467.75 1251.45 1546.23 1251.45C1636.2 1251.45 1711.49 1194.45 1783.17 1088.53C1782.1 1171.69 1801.03 1249.96 1873.13 1249.96C1907.16 1249.96 1947.79 1242.09 1955.02 1212.32C2030.95 898.39 2218.54 642.102 2275.96 642.102C2292.98 642.102 2297.66 658.479 2297.66 677.833C2297.66 763.121 2237.47 937.95 2237.47 1049.61C2237.47 1170.2 2288.72 1249.96 2394.64 1249.96C2512.05 1249.96 2631.36 1106.18 2710.91 896.05C2735.79 1092.36 2789.6 1250.81 2873.83 1250.81C2977.19 1250.81 3160.74 1033.23 3271.98 802.893C3315.58 808.423 3381.09 806.934 3444.04 762.483C3417.24 830.33 3401.5 904.558 3401.5 978.785C3401.5 1192.54 3503.59 1252.51 3591.43 1252.51C3686.93 1252.51 3764.35 1195.51 3823.69 1095.34C3843.25 1185.73 3893.24 1251.24 3985.12 1251.24C4128.89 1251.24 4253.74 1104.27 4253.74 983.677C4253.74 951.774 4240.13 932.42 4224.18 932.42ZM1239.97 1134.05C1181.9 1134.05 1159.14 1075.56 1159.14 988.356C1159.14 836.923 1262.72 584.038 1372.26 584.038C1420.11 584.038 1438.19 640.4 1438.19 709.311C1438.19 863.084 1339.72 1134.05 1239.97 1134.05ZM3228.8 682.087C3194.13 640.826 3181.58 584.676 3181.58 534.695C3181.58 473.016 3204.13 420.908 3231.14 420.908C3258.15 420.908 3266.45 447.493 3266.45 484.501C3266.45 546.393 3244.33 636.785 3228.8 682.087ZM3679.06 1134.05C3621 1134.05 3598.24 1066.84 3598.24 988.356C3598.24 842.24 3701.82 584.038 3812.2 584.038C3860.06 584.038 3877.07 639.975 3877.07 709.311C3877.07 863.084 3780.3 1134.05 3679.06 1134.05Z" fill="url(#paint0_radial_3_810)"/>
<path d="M4224.18 932.42C4216.94 932.42 4210.35 937.099 4206.95 946.882C4163.35 1071.3 4104.43 1145.32 4055.94 1145.32C4028.08 1145.32 4016.81 1114.27 4016.81 1065.56C4016.81 943.692 4089.76 685.277 4126.55 567.449C4130.81 553.199 4133.57 540.438 4133.57 529.591C4133.57 495.348 4114.86 478.546 4068.49 478.546C4018.51 478.546 3964.7 498.113 3912.38 589.781C3894.3 508.96 3839.64 473.654 3763.28 473.654C3675.02 473.654 3589.73 530.441 3519.54 622.535C3449.36 714.628 3366.84 744.83 3304.73 729.942C3349.39 620.621 3365.98 538.949 3365.98 478.333C3365.98 383.262 3318.98 325.836 3243.05 325.836C3127.56 325.836 3060.99 436.008 3060.99 551.923C3060.99 641.464 3101.61 733.557 3190.94 778.222C3116.08 947.52 3006.76 1100.66 2965.28 1100.66C2911.68 1100.66 2895.95 838.412 2898.92 650.822C2900.84 543.203 2909.77 537.673 2909.77 505.132C2909.77 486.415 2897.65 473.654 2848.94 473.654C2735.37 473.654 2700.27 569.788 2694.96 680.173C2693.26 722.072 2686.66 763.759 2675.39 804.169C2627.96 973.468 2530.12 1101.93 2466.32 1101.93C2436.75 1101.93 2428.67 1072.37 2428.67 1033.66C2428.67 911.789 2496.95 759.505 2496.95 629.553C2496.95 534.057 2455.05 473.654 2376.14 473.654C2283.19 473.654 2160.26 584.251 2043.92 791.408C2082.21 632.744 2097.94 479.184 1984.58 479.184C1959.91 479.609 1935.88 485.777 1914.18 497.475C1899.29 504.493 1890.15 519.807 1891.21 536.184C1902.06 705.057 1755.09 1137.66 1615.78 1137.66C1590.47 1137.66 1578.14 1110.23 1578.14 1065.99C1578.14 943.905 1650.88 686.128 1687.46 568.087C1692.14 552.773 1694.69 539.587 1694.69 528.102C1694.69 495.773 1674.7 479.184 1629.4 479.184C1579.63 479.184 1525.6 498.113 1473.5 589.781C1455.2 508.96 1400.54 473.654 1324.19 473.654C1198.92 473.654 1058.97 606.158 997.502 778.86C915.192 1009.41 749.296 1232.1 525.975 1232.1C323.284 1232.1 216.303 1063.43 216.303 796.938C216.303 412.187 498.751 97.836 708.248 97.836C808.423 97.836 856.278 161.642 856.278 259.478C856.278 377.945 790.132 433.031 790.132 478.12C790.132 491.945 801.617 505.557 824.375 505.557C915.405 505.557 1022.6 398.575 1022.6 252.672C1022.6 106.769 904.132 0 694.636 0C348.381 0 0 348.381 0 794.811C0 1150 175.254 1364.17 478.333 1364.17C685.065 1364.17 865.636 1203.38 963.047 1015.79C974.106 1171.27 1044.72 1252.51 1152.34 1252.51C1248.05 1252.51 1325.47 1195.51 1384.59 1095.34C1407.35 1200.19 1467.75 1251.45 1546.23 1251.45C1636.2 1251.45 1711.49 1194.45 1783.17 1088.53C1782.1 1171.69 1801.03 1249.96 1873.13 1249.96C1907.16 1249.96 1947.79 1242.09 1955.02 1212.32C2030.95 898.39 2218.54 642.102 2275.96 642.102C2292.98 642.102 2297.66 658.479 2297.66 677.833C2297.66 763.121 2237.47 937.95 2237.47 1049.61C2237.47 1170.2 2288.72 1249.96 2394.64 1249.96C2512.05 1249.96 2631.36 1106.18 2710.91 896.05C2735.79 1092.36 2789.6 1250.81 2873.83 1250.81C2977.19 1250.81 3160.74 1033.23 3271.98 802.893C3315.58 808.423 3381.09 806.934 3444.04 762.483C3417.24 830.33 3401.5 904.558 3401.5 978.785C3401.5 1192.54 3503.59 1252.51 3591.43 1252.51C3686.93 1252.51 3764.35 1195.51 3823.69 1095.34C3843.25 1185.73 3893.24 1251.24 3985.12 1251.24C4128.89 1251.24 4253.74 1104.27 4253.74 983.677C4253.74 951.774 4240.13 932.42 4224.18 932.42ZM1239.97 1134.05C1181.9 1134.05 1159.14 1075.56 1159.14 988.356C1159.14 836.923 1262.72 584.038 1372.26 584.038C1420.11 584.038 1438.19 640.4 1438.19 709.311C1438.19 863.084 1339.72 1134.05 1239.97 1134.05ZM3228.8 682.087C3194.13 640.826 3181.58 584.676 3181.58 534.695C3181.58 473.016 3204.13 420.908 3231.14 420.908C3258.15 420.908 3266.45 447.493 3266.45 484.501C3266.45 546.393 3244.33 636.785 3228.8 682.087ZM3679.06 1134.05C3621 1134.05 3598.24 1066.84 3598.24 988.356C3598.24 842.24 3701.82 584.038 3812.2 584.038C3860.06 584.038 3877.07 639.975 3877.07 709.311C3877.07 863.084 3780.3 1134.05 3679.06 1134.05Z" fill="url(#paint1_radial_3_810)"/>
<path d="M4224.18 932.42C4216.94 932.42 4210.35 937.099 4206.95 946.882C4163.35 1071.3 4104.43 1145.32 4055.94 1145.32C4028.08 1145.32 4016.81 1114.27 4016.81 1065.56C4016.81 943.692 4089.76 685.277 4126.55 567.449C4130.81 553.199 4133.57 540.438 4133.57 529.591C4133.57 495.348 4114.86 478.546 4068.49 478.546C4018.51 478.546 3964.7 498.113 3912.38 589.781C3894.3 508.96 3839.64 473.654 3763.28 473.654C3675.02 473.654 3589.73 530.441 3519.54 622.535C3449.36 714.628 3366.84 744.83 3304.73 729.942C3349.39 620.621 3365.98 538.949 3365.98 478.333C3365.98 383.262 3318.98 325.836 3243.05 325.836C3127.56 325.836 3060.99 436.008 3060.99 551.923C3060.99 641.464 3101.61 733.557 3190.94 778.222C3116.08 947.52 3006.76 1100.66 2965.28 1100.66C2911.68 1100.66 2895.95 838.412 2898.92 650.822C2900.84 543.203 2909.77 537.673 2909.77 505.132C2909.77 486.415 2897.65 473.654 2848.94 473.654C2735.37 473.654 2700.27 569.788 2694.96 680.173C2693.26 722.072 2686.66 763.759 2675.39 804.169C2627.96 973.468 2530.12 1101.93 2466.32 1101.93C2436.75 1101.93 2428.67 1072.37 2428.67 1033.66C2428.67 911.789 2496.95 759.505 2496.95 629.553C2496.95 534.057 2455.05 473.654 2376.14 473.654C2283.19 473.654 2160.26 584.251 2043.92 791.408C2082.21 632.744 2097.94 479.184 1984.58 479.184C1959.91 479.609 1935.88 485.777 1914.18 497.475C1899.29 504.493 1890.15 519.807 1891.21 536.184C1902.06 705.057 1755.09 1137.66 1615.78 1137.66C1590.47 1137.66 1578.14 1110.23 1578.14 1065.99C1578.14 943.905 1650.88 686.128 1687.46 568.087C1692.14 552.773 1694.69 539.587 1694.69 528.102C1694.69 495.773 1674.7 479.184 1629.4 479.184C1579.63 479.184 1525.6 498.113 1473.5 589.781C1455.2 508.96 1400.54 473.654 1324.19 473.654C1198.92 473.654 1058.97 606.158 997.502 778.86C915.192 1009.41 749.296 1232.1 525.975 1232.1C323.284 1232.1 216.303 1063.43 216.303 796.938C216.303 412.187 498.751 97.836 708.248 97.836C808.423 97.836 856.278 161.642 856.278 259.478C856.278 377.945 790.132 433.031 790.132 478.12C790.132 491.945 801.617 505.557 824.375 505.557C915.405 505.557 1022.6 398.575 1022.6 252.672C1022.6 106.769 904.132 0 694.636 0C348.381 0 0 348.381 0 794.811C0 1150 175.254 1364.17 478.333 1364.17C685.065 1364.17 865.636 1203.38 963.047 1015.79C974.106 1171.27 1044.72 1252.51 1152.34 1252.51C1248.05 1252.51 1325.47 1195.51 1384.59 1095.34C1407.35 1200.19 1467.75 1251.45 1546.23 1251.45C1636.2 1251.45 1711.49 1194.45 1783.17 1088.53C1782.1 1171.69 1801.03 1249.96 1873.13 1249.96C1907.16 1249.96 1947.79 1242.09 1955.02 1212.32C2030.95 898.39 2218.54 642.102 2275.96 642.102C2292.98 642.102 2297.66 658.479 2297.66 677.833C2297.66 763.121 2237.47 937.95 2237.47 1049.61C2237.47 1170.2 2288.72 1249.96 2394.64 1249.96C2512.05 1249.96 2631.36 1106.18 2710.91 896.05C2735.79 1092.36 2789.6 1250.81 2873.83 1250.81C2977.19 1250.81 3160.74 1033.23 3271.98 802.893C3315.58 808.423 3381.09 806.934 3444.04 762.483C3417.24 830.33 3401.5 904.558 3401.5 978.785C3401.5 1192.54 3503.59 1252.51 3591.43 1252.51C3686.93 1252.51 3764.35 1195.51 3823.69 1095.34C3843.25 1185.73 3893.24 1251.24 3985.12 1251.24C4128.89 1251.24 4253.74 1104.27 4253.74 983.677C4253.74 951.774 4240.13 932.42 4224.18 932.42ZM1239.97 1134.05C1181.9 1134.05 1159.14 1075.56 1159.14 988.356C1159.14 836.923 1262.72 584.038 1372.26 584.038C1420.11 584.038 1438.19 640.4 1438.19 709.311C1438.19 863.084 1339.72 1134.05 1239.97 1134.05ZM3228.8 682.087C3194.13 640.826 3181.58 584.676 3181.58 534.695C3181.58 473.016 3204.13 420.908 3231.14 420.908C3258.15 420.908 3266.45 447.493 3266.45 484.501C3266.45 546.393 3244.33 636.785 3228.8 682.087ZM3679.06 1134.05C3621 1134.05 3598.24 1066.84 3598.24 988.356C3598.24 842.24 3701.82 584.038 3812.2 584.038C3860.06 584.038 3877.07 639.975 3877.07 709.311C3877.07 863.084 3780.3 1134.05 3679.06 1134.05Z" fill="url(#paint2_radial_3_810)"/>
<path d="M4224.18 932.42C4216.94 932.42 4210.35 937.099 4206.95 946.882C4163.35 1071.3 4104.43 1145.32 4055.94 1145.32C4028.08 1145.32 4016.81 1114.27 4016.81 1065.56C4016.81 943.692 4089.76 685.277 4126.55 567.449C4130.81 553.199 4133.57 540.438 4133.57 529.591C4133.57 495.348 4114.86 478.546 4068.49 478.546C4018.51 478.546 3964.7 498.113 3912.38 589.781C3894.3 508.96 3839.64 473.654 3763.28 473.654C3675.02 473.654 3589.73 530.441 3519.54 622.535C3449.36 714.628 3366.84 744.83 3304.73 729.942C3349.39 620.621 3365.98 538.949 3365.98 478.333C3365.98 383.262 3318.98 325.836 3243.05 325.836C3127.56 325.836 3060.99 436.008 3060.99 551.923C3060.99 641.464 3101.61 733.557 3190.94 778.222C3116.08 947.52 3006.76 1100.66 2965.28 1100.66C2911.68 1100.66 2895.95 838.412 2898.92 650.822C2900.84 543.203 2909.77 537.673 2909.77 505.132C2909.77 486.415 2897.65 473.654 2848.94 473.654C2735.37 473.654 2700.27 569.788 2694.96 680.173C2693.26 722.072 2686.66 763.759 2675.39 804.169C2627.96 973.468 2530.12 1101.93 2466.32 1101.93C2436.75 1101.93 2428.67 1072.37 2428.67 1033.66C2428.67 911.789 2496.95 759.505 2496.95 629.553C2496.95 534.057 2455.05 473.654 2376.14 473.654C2283.19 473.654 2160.26 584.251 2043.92 791.408C2082.21 632.744 2097.94 479.184 1984.58 479.184C1959.91 479.609 1935.88 485.777 1914.18 497.475C1899.29 504.493 1890.15 519.807 1891.21 536.184C1902.06 705.057 1755.09 1137.66 1615.78 1137.66C1590.47 1137.66 1578.14 1110.23 1578.14 1065.99C1578.14 943.905 1650.88 686.128 1687.46 568.087C1692.14 552.773 1694.69 539.587 1694.69 528.102C1694.69 495.773 1674.7 479.184 1629.4 479.184C1579.63 479.184 1525.6 498.113 1473.5 589.781C1455.2 508.96 1400.54 473.654 1324.19 473.654C1198.92 473.654 1058.97 606.158 997.502 778.86C915.192 1009.41 749.296 1232.1 525.975 1232.1C323.284 1232.1 216.303 1063.43 216.303 796.938C216.303 412.187 498.751 97.836 708.248 97.836C808.423 97.836 856.278 161.642 856.278 259.478C856.278 377.945 790.132 433.031 790.132 478.12C790.132 491.945 801.617 505.557 824.375 505.557C915.405 505.557 1022.6 398.575 1022.6 252.672C1022.6 106.769 904.132 0 694.636 0C348.381 0 0 348.381 0 794.811C0 1150 175.254 1364.17 478.333 1364.17C685.065 1364.17 865.636 1203.38 963.047 1015.79C974.106 1171.27 1044.72 1252.51 1152.34 1252.51C1248.05 1252.51 1325.47 1195.51 1384.59 1095.34C1407.35 1200.19 1467.75 1251.45 1546.23 1251.45C1636.2 1251.45 1711.49 1194.45 1783.17 1088.53C1782.1 1171.69 1801.03 1249.96 1873.13 1249.96C1907.16 1249.96 1947.79 1242.09 1955.02 1212.32C2030.95 898.39 2218.54 642.102 2275.96 642.102C2292.98 642.102 2297.66 658.479 2297.66 677.833C2297.66 763.121 2237.47 937.95 2237.47 1049.61C2237.47 1170.2 2288.72 1249.96 2394.64 1249.96C2512.05 1249.96 2631.36 1106.18 2710.91 896.05C2735.79 1092.36 2789.6 1250.81 2873.83 1250.81C2977.19 1250.81 3160.74 1033.23 3271.98 802.893C3315.58 808.423 3381.09 806.934 3444.04 762.483C3417.24 830.33 3401.5 904.558 3401.5 978.785C3401.5 1192.54 3503.59 1252.51 3591.43 1252.51C3686.93 1252.51 3764.35 1195.51 3823.69 1095.34C3843.25 1185.73 3893.24 1251.24 3985.12 1251.24C4128.89 1251.24 4253.74 1104.27 4253.74 983.677C4253.74 951.774 4240.13 932.42 4224.18 932.42ZM1239.97 1134.05C1181.9 1134.05 1159.14 1075.56 1159.14 988.356C1159.14 836.923 1262.72 584.038 1372.26 584.038C1420.11 584.038 1438.19 640.4 1438.19 709.311C1438.19 863.084 1339.72 1134.05 1239.97 1134.05ZM3228.8 682.087C3194.13 640.826 3181.58 584.676 3181.58 534.695C3181.58 473.016 3204.13 420.908 3231.14 420.908C3258.15 420.908 3266.45 447.493 3266.45 484.501C3266.45 546.393 3244.33 636.785 3228.8 682.087ZM3679.06 1134.05C3621 1134.05 3598.24 1066.84 3598.24 988.356C3598.24 842.24 3701.82 584.038 3812.2 584.038C3860.06 584.038 3877.07 639.975 3877.07 709.311C3877.07 863.084 3780.3 1134.05 3679.06 1134.05Z" fill="url(#paint3_radial_3_810)"/>
<path d="M4224.18 932.42C4216.94 932.42 4210.35 937.099 4206.95 946.882C4163.35 1071.3 4104.43 1145.32 4055.94 1145.32C4028.08 1145.32 4016.81 1114.27 4016.81 1065.56C4016.81 943.692 4089.76 685.277 4126.55 567.449C4130.81 553.199 4133.57 540.438 4133.57 529.591C4133.57 495.348 4114.86 478.546 4068.49 478.546C4018.51 478.546 3964.7 498.113 3912.38 589.781C3894.3 508.96 3839.64 473.654 3763.28 473.654C3675.02 473.654 3589.73 530.441 3519.54 622.535C3449.36 714.628 3366.84 744.83 3304.73 729.942C3349.39 620.621 3365.98 538.949 3365.98 478.333C3365.98 383.262 3318.98 325.836 3243.05 325.836C3127.56 325.836 3060.99 436.008 3060.99 551.923C3060.99 641.464 3101.61 733.557 3190.94 778.222C3116.08 947.52 3006.76 1100.66 2965.28 1100.66C2911.68 1100.66 2895.95 838.412 2898.92 650.822C2900.84 543.203 2909.77 537.673 2909.77 505.132C2909.77 486.415 2897.65 473.654 2848.94 473.654C2735.37 473.654 2700.27 569.788 2694.96 680.173C2693.26 722.072 2686.66 763.759 2675.39 804.169C2627.96 973.468 2530.12 1101.93 2466.32 1101.93C2436.75 1101.93 2428.67 1072.37 2428.67 1033.66C2428.67 911.789 2496.95 759.505 2496.95 629.553C2496.95 534.057 2455.05 473.654 2376.14 473.654C2283.19 473.654 2160.26 584.251 2043.92 791.408C2082.21 632.744 2097.94 479.184 1984.58 479.184C1959.91 479.609 1935.88 485.777 1914.18 497.475C1899.29 504.493 1890.15 519.807 1891.21 536.184C1902.06 705.057 1755.09 1137.66 1615.78 1137.66C1590.47 1137.66 1578.14 1110.23 1578.14 1065.99C1578.14 943.905 1650.88 686.128 1687.46 568.087C1692.14 552.773 1694.69 539.587 1694.69 528.102C1694.69 495.773 1674.7 479.184 1629.4 479.184C1579.63 479.184 1525.6 498.113 1473.5 589.781C1455.2 508.96 1400.54 473.654 1324.19 473.654C1198.92 473.654 1058.97 606.158 997.502 778.86C915.192 1009.41 749.296 1232.1 525.975 1232.1C323.284 1232.1 216.303 1063.43 216.303 796.938C216.303 412.187 498.751 97.836 708.248 97.836C808.423 97.836 856.278 161.642 856.278 259.478C856.278 377.945 790.132 433.031 790.132 478.12C790.132 491.945 801.617 505.557 824.375 505.557C915.405 505.557 1022.6 398.575 1022.6 252.672C1022.6 106.769 904.132 0 694.636 0C348.381 0 0 348.381 0 794.811C0 1150 175.254 1364.17 478.333 1364.17C685.065 1364.17 865.636 1203.38 963.047 1015.79C974.106 1171.27 1044.72 1252.51 1152.34 1252.51C1248.05 1252.51 1325.47 1195.51 1384.59 1095.34C1407.35 1200.19 1467.75 1251.45 1546.23 1251.45C1636.2 1251.45 1711.49 1194.45 1783.17 1088.53C1782.1 1171.69 1801.03 1249.96 1873.13 1249.96C1907.16 1249.96 1947.79 1242.09 1955.02 1212.32C2030.95 898.39 2218.54 642.102 2275.96 642.102C2292.98 642.102 2297.66 658.479 2297.66 677.833C2297.66 763.121 2237.47 937.95 2237.47 1049.61C2237.47 1170.2 2288.72 1249.96 2394.64 1249.96C2512.05 1249.96 2631.36 1106.18 2710.91 896.05C2735.79 1092.36 2789.6 1250.81 2873.83 1250.81C2977.19 1250.81 3160.74 1033.23 3271.98 802.893C3315.58 808.423 3381.09 806.934 3444.04 762.483C3417.24 830.33 3401.5 904.558 3401.5 978.785C3401.5 1192.54 3503.59 1252.51 3591.43 1252.51C3686.93 1252.51 3764.35 1195.51 3823.69 1095.34C3843.25 1185.73 3893.24 1251.24 3985.12 1251.24C4128.89 1251.24 4253.74 1104.27 4253.74 983.677C4253.74 951.774 4240.13 932.42 4224.18 932.42ZM1239.97 1134.05C1181.9 1134.05 1159.14 1075.56 1159.14 988.356C1159.14 836.923 1262.72 584.038 1372.26 584.038C1420.11 584.038 1438.19 640.4 1438.19 709.311C1438.19 863.084 1339.72 1134.05 1239.97 1134.05ZM3228.8 682.087C3194.13 640.826 3181.58 584.676 3181.58 534.695C3181.58 473.016 3204.13 420.908 3231.14 420.908C3258.15 420.908 3266.45 447.493 3266.45 484.501C3266.45 546.393 3244.33 636.785 3228.8 682.087ZM3679.06 1134.05C3621 1134.05 3598.24 1066.84 3598.24 988.356C3598.24 842.24 3701.82 584.038 3812.2 584.038C3860.06 584.038 3877.07 639.975 3877.07 709.311C3877.07 863.084 3780.3 1134.05 3679.06 1134.05Z" fill="url(#paint4_radial_3_810)"/>
<path d="M3769.89 2144.89V1714.26H3847.31V1829.41H3850.81C3875.7 1747.2 3926.66 1706.09 4003.68 1706.09C4053.99 1706.09 4091.21 1720.36 4115.33 1748.88C4139.45 1777.41 4151.5 1820.72 4151.5 1878.81V2144.89H4072.54V1886.2C4072.54 1846.78 4064.76 1818.52 4049.2 1801.4C4033.9 1784.02 4010.17 1775.34 3978.01 1775.34C3937.81 1775.34 3906.17 1788.43 3883.09 1814.63C3860.27 1840.82 3848.86 1881.53 3848.86 1936.77V2144.89H3769.89Z" fill="white"/>
<path d="M3432.35 2153.06C3400.97 2153.06 3374.26 2147.74 3352.21 2137.11C3330.43 2126.22 3313.96 2110.91 3302.81 2091.21C3291.92 2071.24 3286.47 2048.03 3286.47 2021.57C3286.47 1986.56 3297.49 1958.3 3319.54 1936.77C3341.58 1914.99 3373.09 1900.6 3414.07 1893.59L3495.76 1879.98C3514.69 1876.87 3529.47 1873.24 3540.1 1869.09C3550.99 1864.68 3558.77 1859.23 3563.44 1852.75C3568.37 1846.26 3570.83 1837.97 3570.83 1827.85C3570.83 1809.96 3564.09 1796.6 3550.6 1787.78C3537.12 1778.71 3515.72 1774.17 3486.42 1774.17C3457.89 1774.17 3431.57 1780.52 3407.45 1793.23C3383.33 1805.68 3362.59 1823.83 3345.21 1847.69L3303.2 1786.62C3325.76 1759.65 3352.6 1739.55 3383.72 1726.32C3414.84 1712.84 3448.56 1706.09 3484.86 1706.09C3543.21 1706.09 3585.61 1718.8 3612.07 1744.22C3638.52 1769.63 3651.74 1808.01 3651.74 1859.36V2039.47C3651.74 2065.92 3662.64 2079.15 3684.42 2079.15C3689.61 2079.15 3694.15 2078.76 3698.04 2077.98C3702.18 2076.94 3706.72 2075.26 3711.65 2072.92L3718.65 2138.27C3705.69 2144.76 3689.22 2148 3669.25 2148C3609.34 2148 3578.09 2114.42 3575.5 2047.25H3572C3552.55 2117.79 3506 2153.06 3432.35 2153.06ZM3449.85 2087.32C3490.31 2087.32 3521.04 2075.9 3542.05 2053.08C3563.05 2030.26 3573.56 1997.07 3573.56 1953.5V1911.1C3568.37 1918.1 3559.42 1924.06 3546.71 1928.99C3534.27 1933.92 3517.28 1938.2 3495.76 1941.83L3437.79 1951.94C3413.94 1956.09 3396.3 1963.87 3384.89 1975.28C3373.48 1986.43 3367.77 2001.48 3367.77 2020.41C3367.77 2041.15 3374.78 2057.49 3388.78 2069.42C3403.04 2081.35 3423.4 2087.32 3449.85 2087.32Z" fill="white"/>
<path d="M3077.69 1918.88C3111.14 1947.66 3144.34 1981.64 3177.27 2020.8C3210.47 2059.96 3240.68 2101.32 3267.91 2144.89H3172.61C3147.19 2105.99 3120.35 2069.16 3092.08 2034.41C3063.82 1999.4 3032.7 1965.69 2998.72 1933.27V2144.89H2919.76V1576.17H2998.72V1906.82C3037.36 1876.22 3069.91 1845.1 3096.36 1813.46C3123.07 1781.82 3144.34 1748.76 3160.16 1714.26H3243.79C3226.68 1753.94 3203.86 1791.03 3175.33 1825.52C3146.8 1859.75 3114.26 1890.87 3077.69 1918.88Z" fill="white"/>
<path d="M2776.72 1676.53C2759.6 1676.53 2745.73 1671.47 2735.09 1661.36C2724.46 1650.99 2719.14 1637.89 2719.14 1622.07C2719.14 1606.25 2724.46 1593.29 2735.09 1583.17C2745.73 1573.06 2759.6 1568 2776.72 1568C2793.83 1568 2807.71 1573.06 2818.34 1583.17C2828.97 1593.29 2834.29 1606.25 2834.29 1622.07C2834.29 1637.89 2828.97 1650.99 2818.34 1661.36C2807.71 1671.47 2793.83 1676.53 2776.72 1676.53ZM2737.04 1714.26C2748.45 1716.6 2761.68 1717.77 2776.72 1717.77C2792.02 1717.77 2805.11 1716.6 2816.01 1714.26V2144.89H2737.04V1714.26Z" fill="white"/>
<path d="M2388.99 2153.06C2350.09 2153.06 2316.12 2144.24 2287.07 2126.61C2258.03 2108.97 2235.47 2083.43 2219.39 2049.97C2203.57 2016.26 2195.66 1976.06 2195.66 1929.38C2195.66 1882.96 2203.83 1843.02 2220.17 1809.57C2236.76 1775.86 2259.58 1750.18 2288.63 1732.55C2317.93 1714.91 2351.39 1706.1 2388.99 1706.1C2430.23 1706.1 2464.07 1715.3 2490.52 1733.71C2517.23 1752.13 2537.46 1779.23 2551.2 1815.02H2554.32V1576.17H2633.67V2144.89H2554.32V2037.52H2551.2C2537.46 2075.39 2517.36 2104.17 2490.91 2123.88C2464.46 2143.33 2430.48 2153.06 2388.99 2153.06ZM2415.83 2083.81C2443.06 2083.81 2467.05 2077.98 2487.8 2066.31C2508.8 2054.38 2525.14 2036.88 2536.81 2013.79C2548.48 1990.45 2554.32 1962.32 2554.32 1929.38C2554.32 1896.45 2548.48 1868.44 2536.81 1845.36C2525.14 1822.28 2508.8 1804.9 2487.8 1793.23C2467.05 1781.3 2443.06 1775.34 2415.83 1775.34C2372.52 1775.34 2338.55 1788.56 2313.91 1815.02C2289.54 1841.47 2277.35 1879.59 2277.35 1929.38C2277.35 1962.58 2282.92 1990.71 2294.08 2013.79C2305.23 2036.88 2321.18 2054.38 2341.92 2066.31C2362.67 2077.98 2387.31 2083.81 2415.83 2083.81Z" fill="white"/>
<path d="M2079.85 1676.53C2062.73 1676.53 2048.86 1671.47 2038.23 1661.36C2027.59 1650.99 2022.28 1637.89 2022.28 1622.07C2022.28 1606.25 2027.59 1593.29 2038.23 1583.17C2048.86 1573.06 2062.73 1568 2079.85 1568C2096.97 1568 2110.84 1573.06 2121.47 1583.17C2132.11 1593.29 2137.42 1606.25 2137.42 1622.07C2137.42 1637.89 2132.11 1650.99 2121.47 1661.36C2110.84 1671.47 2096.97 1676.53 2079.85 1676.53ZM2040.17 1714.26C2051.58 1716.6 2064.81 1717.77 2079.85 1717.77C2095.15 1717.77 2108.25 1716.6 2119.14 1714.26V2144.89H2040.17V1714.26Z" fill="white"/>
<path d="M1692.12 2153.06C1653.22 2153.06 1619.25 2144.24 1590.2 2126.61C1561.16 2108.97 1538.6 2083.43 1522.52 2049.97C1506.7 2016.26 1498.79 1976.06 1498.79 1929.38C1498.79 1882.96 1506.96 1843.02 1523.3 1809.57C1539.89 1775.86 1562.71 1750.18 1591.76 1732.55C1621.06 1714.91 1654.52 1706.1 1692.12 1706.1C1733.36 1706.1 1767.2 1715.3 1793.65 1733.71C1820.36 1752.13 1840.59 1779.23 1854.34 1815.02H1857.45V1576.17H1936.8V2144.89H1857.45V2037.52H1854.34C1840.59 2075.39 1820.49 2104.17 1794.04 2123.88C1767.59 2143.33 1733.62 2153.06 1692.12 2153.06ZM1718.96 2083.81C1746.19 2083.81 1770.18 2077.98 1790.93 2066.31C1811.93 2054.38 1828.27 2036.88 1839.94 2013.79C1851.61 1990.45 1857.45 1962.32 1857.45 1929.38C1857.45 1896.45 1851.61 1868.44 1839.94 1845.36C1828.27 1822.28 1811.93 1804.9 1790.93 1793.23C1770.18 1781.3 1746.19 1775.34 1718.96 1775.34C1675.65 1775.34 1641.68 1788.56 1617.05 1815.02C1592.67 1841.47 1580.48 1879.59 1580.48 1929.38C1580.48 1962.58 1586.05 1990.71 1597.21 2013.79C1608.36 2036.88 1624.31 2054.38 1645.05 2066.31C1665.8 2077.98 1690.44 2083.81 1718.96 2083.81Z" fill="white"/>
<path d="M1047.66 2144.89V1714.26H1125.07V1829.41H1128.57C1153.47 1747.2 1204.43 1706.09 1281.45 1706.09C1331.76 1706.09 1368.97 1720.36 1393.09 1748.88C1417.21 1777.41 1429.27 1820.72 1429.27 1878.81V2144.89H1350.3V1886.2C1350.3 1846.78 1342.52 1818.52 1326.96 1801.4C1311.66 1784.02 1287.93 1775.34 1255.78 1775.34C1215.58 1775.34 1183.94 1788.43 1160.86 1814.63C1138.04 1840.82 1126.63 1881.53 1126.63 1936.77V2144.89H1047.66Z" fill="white"/>
<path d="M975.027 2068.25C957.133 2096 932.367 2117.14 900.728 2131.66C869.349 2145.92 832.912 2153.06 791.419 2153.06C744.739 2153.06 703.894 2144.11 668.884 2126.22C633.874 2108.06 606.773 2082.26 587.583 2048.8C568.651 2015.09 559.186 1975.28 559.186 1929.38C559.186 1885.04 568.781 1846.01 587.972 1812.29C607.162 1778.32 633.225 1752.13 666.161 1733.71C699.355 1715.3 736.181 1706.09 776.637 1706.09C818.908 1706.09 854.696 1714.65 884.001 1731.77C913.565 1748.63 935.738 1771.97 950.52 1801.79C965.562 1831.61 973.082 1865.71 973.082 1904.1C973.082 1918.62 972.045 1933.79 969.97 1949.61L641.654 1950.39C645.284 1994.73 660.196 2028.06 686.389 2050.36C712.582 2072.66 747.332 2083.81 790.641 2083.81C823.317 2083.81 851.195 2077.46 874.276 2064.75C897.616 2052.05 916.029 2033.89 929.514 2010.29L975.027 2068.25ZM776.637 1773.39C742.146 1773.39 713.1 1782.99 689.501 1802.18C665.901 1821.37 650.86 1849.64 644.377 1886.98H893.337C892.818 1850.41 882.315 1822.41 861.828 1802.96C841.341 1783.25 812.944 1773.39 776.637 1773.39Z" fill="white"/>
<path d="M318.506 1576.17C386.711 1576.17 438.319 1592.25 473.329 1624.41C508.339 1656.3 525.844 1701.17 525.844 1759C525.844 1817.09 508.339 1862.21 473.329 1894.37C438.578 1926.53 386.971 1942.61 318.506 1942.61H185.468V2144.89H103V1576.17H318.506ZM314.227 1871.81C358.055 1871.81 390.212 1862.34 410.7 1843.41C431.446 1824.22 441.82 1796.08 441.82 1759C441.82 1722.17 431.446 1694.3 410.7 1675.36C389.953 1656.17 357.795 1646.58 314.227 1646.58H185.468V1871.81H314.227Z" fill="white"/>
</g>
<defs>
<radialGradient id="paint0_radial_3_810" cx="0" cy="0" r="1" gradientUnits="userSpaceOnUse" gradientTransform="translate(2177.91 1512.2) rotate(-45.8069) scale(1281.47 851.646)">
<stop stop-color="#6420FF"/>
<stop offset="1" stop-color="#6420FF" stop-opacity="0"/>
</radialGradient>
<radialGradient id="paint1_radial_3_810" cx="0" cy="0" r="1" gradientUnits="userSpaceOnUse" gradientTransform="translate(102.09 908.173) rotate(5.08826) scale(2494.01 1987.78)">
<stop offset="0.25" stop-color="#00C4CC"/>
<stop offset="1" stop-color="#00C4CC" stop-opacity="0"/>
</radialGradient>
<radialGradient id="paint2_radial_3_810" cx="0" cy="0" r="1" gradientUnits="userSpaceOnUse" gradientTransform="translate(1815.28 1363.32) rotate(-38.8493) scale(1607.17 1098.93)">
<stop stop-color="#6420FF"/>
<stop offset="1" stop-color="#6420FF" stop-opacity="0"/>
</radialGradient>
<radialGradient id="paint3_radial_3_810" cx="0" cy="0" r="1" gradientUnits="userSpaceOnUse" gradientTransform="translate(121.231 1363.32) rotate(-26.1243) scale(1854.83 1268.27)">
<stop stop-color="#6420FF"/>
<stop offset="1" stop-color="#6420FF" stop-opacity="0"/>
</radialGradient>
<radialGradient id="paint4_radial_3_810" cx="0" cy="0" r="1" gradientUnits="userSpaceOnUse" gradientTransform="translate(408.359 125.485) rotate(12.4717) scale(3703.06 4541.65)">
<stop stop-color="#00C4CC" stop-opacity="0.725916"/>
<stop stop-color="#00C4CC"/>
<stop offset="1" stop-color="#00C4CC" stop-opacity="0"/>
</radialGradient>
<clipPath id="clip0_3_810">
<rect width="4253" height="2159" fill="white"/>
</clipPath>
</defs>
</svg>